<svg width="176" height="48" viewBox="0 0 176 48" fill="none" xmlns="http://www.w3.org/2000/svg">
<rect width="75" height="48" fill="#FFA200"/>
<rect x="75" width="101" height="48" fill="#000099"/>
<path d="M9.61591 40C9.27991 40 8.97991 39.892 8.71591 39.676C8.47591 39.46 8.30791 39.184 8.21191 38.848L0.831906 13.9C0.663906 13.324 0.687906 12.844 0.903906 12.46C1.14391 12.076 1.51591 11.884 2.01991 11.884C2.30791 11.884 2.57191 11.968 2.81191 12.136C3.07591 12.28 3.26791 12.556 3.38791 12.964L10.0479 36.148H9.21991L15.5199 13.576C15.5919 13.312 15.7479 13.096 15.9879 12.928C16.2519 12.76 16.5399 12.676 16.8519 12.676C17.1399 12.676 17.4159 12.76 17.6799 12.928C17.9439 13.072 18.1119 13.3 18.1839 13.612L24.5199 36.148H23.6919L30.3879 12.82C30.5559 12.196 31.0119 11.884 31.7559 11.884C32.2599 11.884 32.6079 12.088 32.7999 12.496C32.9919 12.88 33.0159 13.348 32.8719 13.9L25.5279 38.812C25.4079 39.196 25.2159 39.496 24.9519 39.712C24.7119 39.904 24.4239 40 24.0879 40C23.7519 40 23.4519 39.892 23.1879 39.676C22.9479 39.46 22.7799 39.184 22.6839 38.848L16.4199 15.988H17.2839L11.0559 38.812C10.9359 39.172 10.7439 39.46 10.4799 39.676C10.2399 39.892 9.95191 40 9.61591 40ZM39.0091 40C38.5771 40 38.2291 39.88 37.9651 39.64C37.7251 39.376 37.6051 39.028 37.6051 38.596V21.712C37.6051 21.28 37.7251 20.944 37.9651 20.704C38.2291 20.44 38.5771 20.308 39.0091 20.308C39.4171 20.308 39.7411 20.44 39.9811 20.704C40.2451 20.944 40.3771 21.28 40.3771 21.712V38.596C40.3771 39.028 40.2451 39.376 39.9811 39.64C39.7411 39.88 39.4171 40 39.0091 40ZM38.9731 16.564C38.4451 16.564 37.9891 16.372 37.6051 15.988C37.2211 15.604 37.0291 15.136 37.0291 14.584C37.0291 13.984 37.2211 13.516 37.6051 13.18C38.0131 12.82 38.4811 12.64 39.0091 12.64C39.5131 12.64 39.9571 12.82 40.3411 13.18C40.7491 13.516 40.9531 13.984 40.9531 14.584C40.9531 15.136 40.7611 15.604 40.3771 15.988C39.9931 16.372 39.5251 16.564 38.9731 16.564ZM49.7033 33.412L48.0113 31.576L60.3233 20.452C60.6113 20.188 60.9113 20.068 61.2233 20.092C61.5353 20.092 61.8233 20.236 62.0873 20.524C62.3513 20.812 62.4713 21.124 62.4473 21.46C62.4473 21.772 62.3033 22.048 62.0153 22.288L49.7033 33.412ZM48.8033 40C48.3953 40 48.0593 39.88 47.7953 39.64C47.5553 39.376 47.4353 39.04 47.4353 38.632V13.252C47.4353 12.844 47.5553 12.52 47.7953 12.28C48.0593 12.016 48.3953 11.884 48.8033 11.884C49.2113 11.884 49.5353 12.016 49.7753 12.28C50.0393 12.52 50.1713 12.844 50.1713 13.252V38.632C50.1713 39.04 50.0393 39.376 49.7753 39.64C49.5353 39.88 49.2113 40 48.8033 40ZM62.1233 39.82C61.8113 40.084 61.4873 40.192 61.1513 40.144C60.8153 40.12 60.5273 39.952 60.2873 39.64L52.2593 29.776L54.2033 28.048L62.3033 38.02C62.5433 38.308 62.6513 38.62 62.6273 38.956C62.6033 39.268 62.4353 39.556 62.1233 39.82ZM70.0169 40C69.5849 40 69.2369 39.88 68.9729 39.64C68.7329 39.376 68.6129 39.028 68.6129 38.596V21.712C68.6129 21.28 68.7329 20.944 68.9729 20.704C69.2369 20.44 69.5849 20.308 70.0169 20.308C70.4249 20.308 70.7489 20.44 70.9889 20.704C71.2529 20.944 71.3849 21.28 71.3849 21.712V38.596C71.3849 39.028 71.2529 39.376 70.9889 39.64C70.7489 39.88 70.4249 40 70.0169 40ZM69.9809 16.564C69.4529 16.564 68.9969 16.372 68.6129 15.988C68.2289 15.604 68.0369 15.136 68.0369 14.584C68.0369 13.984 68.2289 13.516 68.6129 13.18C69.0209 12.82 69.4889 12.64 70.0169 12.64C70.5209 12.64 70.9649 12.82 71.3489 13.18C71.7569 13.516 71.9609 13.984 71.9609 14.584C71.9609 15.136 71.7689 15.604 71.3849 15.988C71.0009 16.372 70.5329 16.564 69.9809 16.564Z" fill="#000099"/>
<path d="M80.2071 40C79.7991 40 79.4631 39.868 79.1991 39.604C78.9351 39.34 78.8031 39.004 78.8031 38.596V13.288C78.8031 12.88 78.9351 12.544 79.1991 12.28C79.4631 12.016 79.7991 11.884 80.2071 11.884H87.4071C89.1831 11.884 90.7551 12.28 92.1231 13.072C93.4911 13.84 94.5591 14.908 95.3271 16.276C96.0951 17.644 96.4791 19.228 96.4791 21.028C96.4791 22.78 96.0951 24.34 95.3271 25.708C94.5591 27.052 93.4911 28.12 92.1231 28.912C90.7551 29.68 89.1831 30.064 87.4071 30.064H81.6111V38.596C81.6111 39.004 81.4791 39.34 81.2151 39.604C80.9511 39.868 80.6151 40 80.2071 40ZM81.6111 27.364H87.4071C88.6311 27.364 89.7231 27.1 90.6831 26.572C91.6431 26.02 92.3871 25.264 92.9151 24.304C93.4671 23.344 93.7431 22.252 93.7431 21.028C93.7431 19.756 93.4671 18.64 92.9151 17.68C92.3871 16.72 91.6431 15.964 90.6831 15.412C89.7231 14.86 88.6311 14.584 87.4071 14.584H81.6111V27.364ZM108.747 40.18C106.827 40.18 105.111 39.748 103.599 38.884C102.087 38.02 100.899 36.832 100.035 35.32C99.171 33.808 98.739 32.092 98.739 30.172C98.739 28.228 99.171 26.5 100.035 24.988C100.899 23.476 102.087 22.288 103.599 21.424C105.111 20.56 106.827 20.128 108.747 20.128C110.667 20.128 112.371 20.56 113.859 21.424C115.371 22.288 116.559 23.476 117.423 24.988C118.287 26.5 118.731 28.228 118.755 30.172C118.755 32.092 118.311 33.808 117.423 35.32C116.559 36.832 115.371 38.02 113.859 38.884C112.371 39.748 110.667 40.18 108.747 40.18ZM108.747 37.66C110.139 37.66 111.387 37.336 112.491 36.688C113.595 36.04 114.459 35.152 115.083 34.024C115.707 32.896 116.019 31.612 116.019 30.172C116.019 28.732 115.707 27.448 115.083 26.32C114.459 25.168 113.595 24.268 112.491 23.62C111.387 22.972 110.139 22.648 108.747 22.648C107.355 22.648 106.107 22.972 105.003 23.62C103.899 24.268 103.023 25.168 102.375 26.32C101.751 27.448 101.439 28.732 101.439 30.172C101.439 31.612 101.751 32.896 102.375 34.024C103.023 35.152 103.899 36.04 105.003 36.688C106.107 37.336 107.355 37.66 108.747 37.66ZM128.394 40C127.434 40 126.57 39.736 125.802 39.208C125.058 38.68 124.47 37.948 124.038 37.012C123.63 36.076 123.426 34.996 123.426 33.772V13.252C123.426 12.844 123.546 12.52 123.786 12.28C124.05 12.016 124.386 11.884 124.794 11.884C125.202 11.884 125.526 12.016 125.766 12.28C126.03 12.52 126.162 12.844 126.162 13.252V33.772C126.162 34.804 126.366 35.644 126.774 36.292C127.206 36.94 127.746 37.264 128.394 37.264H129.294C129.654 37.264 129.942 37.396 130.158 37.66C130.374 37.9 130.482 38.224 130.482 38.632C130.482 39.04 130.326 39.376 130.014 39.64C129.726 39.88 129.342 40 128.862 40H128.394ZM138.554 40C137.594 40 136.73 39.736 135.962 39.208C135.218 38.68 134.63 37.948 134.198 37.012C133.79 36.076 133.586 34.996 133.586 33.772V13.252C133.586 12.844 133.706 12.52 133.946 12.28C134.21 12.016 134.546 11.884 134.954 11.884C135.362 11.884 135.686 12.016 135.926 12.28C136.19 12.52 136.322 12.844 136.322 13.252V33.772C136.322 34.804 136.526 35.644 136.934 36.292C137.366 36.94 137.906 37.264 138.554 37.264H139.454C139.814 37.264 140.102 37.396 140.318 37.66C140.534 37.9 140.642 38.224 140.642 38.632C140.642 39.04 140.486 39.376 140.174 39.64C139.886 39.88 139.502 40 139.022 40H138.554ZM146.447 40C146.015 40 145.667 39.88 145.403 39.64C145.163 39.376 145.043 39.028 145.043 38.596V21.712C145.043 21.28 145.163 20.944 145.403 20.704C145.667 20.44 146.015 20.308 146.447 20.308C146.855 20.308 147.179 20.44 147.419 20.704C147.683 20.944 147.815 21.28 147.815 21.712V38.596C147.815 39.028 147.683 39.376 147.419 39.64C147.179 39.88 146.855 40 146.447 40ZM146.411 16.564C145.883 16.564 145.427 16.372 145.043 15.988C144.659 15.604 144.467 15.136 144.467 14.584C144.467 13.984 144.659 13.516 145.043 13.18C145.451 12.82 145.919 12.64 146.447 12.64C146.951 12.64 147.395 12.82 147.779 13.18C148.187 13.516 148.391 13.984 148.391 14.584C148.391 15.136 148.199 15.604 147.815 15.988C147.431 16.372 146.963 16.564 146.411 16.564ZM163.549 40.18C161.701 40.18 160.045 39.748 158.581 38.884C157.117 37.996 155.953 36.796 155.089 35.284C154.249 33.772 153.829 32.068 153.829 30.172C153.829 28.252 154.261 26.536 155.125 25.024C156.013 23.512 157.213 22.324 158.725 21.46C160.237 20.572 161.941 20.128 163.837 20.128C165.733 20.128 167.425 20.572 168.913 21.46C170.425 22.324 171.613 23.512 172.477 25.024C173.365 26.536 173.821 28.252 173.845 30.172L172.729 31.036C172.729 32.764 172.321 34.324 171.505 35.716C170.713 37.084 169.621 38.176 168.229 38.992C166.861 39.784 165.301 40.18 163.549 40.18ZM163.837 37.66C165.229 37.66 166.465 37.336 167.545 36.688C168.649 36.04 169.513 35.152 170.137 34.024C170.785 32.872 171.109 31.588 171.109 30.172C171.109 28.732 170.785 27.448 170.137 26.32C169.513 25.192 168.649 24.304 167.545 23.656C166.465 22.984 165.229 22.648 163.837 22.648C162.469 22.648 161.233 22.984 160.129 23.656C159.025 24.304 158.149 25.192 157.501 26.32C156.853 27.448 156.529 28.732 156.529 30.172C156.529 31.588 156.853 32.872 157.501 34.024C158.149 35.152 159.025 36.04 160.129 36.688C161.233 37.336 162.469 37.66 163.837 37.66ZM172.441 40C172.033 40 171.697 39.88 171.433 39.64C171.169 39.376 171.037 39.04 171.037 38.632V32.476L171.721 29.632L173.845 30.172V38.632C173.845 39.04 173.713 39.376 173.449 39.64C173.185 39.88 172.849 40 172.441 40Z" fill="#FFA200"/>
</svg>
